<?xml version="1.0" standalone="no"?>
<!DOCTYPE svg PUBLIC "-//W3C//DTD SVG 20010904//EN"
 "http://www.w3.org/TR/2001/REC-SVG-20010904/DTD/svg10.dtd">
<svg version="1.0" xmlns="http://www.w3.org/2000/svg"
 width="400.000000pt" height="200.000000pt" viewBox="0 0 400.000000 200.000000"
 preserveAspectRatio="xMidYMid meet">

<g transform="translate(0.000000,200.000000) scale(0.100000,-0.100000)"
fill="#3c4ae5" stroke="none">
<path d="M3140 1634 c-30 -26 -31 -26 -51 -8 -42 38 -88 18 -89 -40 0 -24 -2
-27 -15 -16 -20 17 -29 -8 -22 -65 2 -25 1 -45 -4 -45 -15 0 -10 -22 8 -43 10
-10 18 -24 19 -30 0 -7 2 -20 2 -29 1 -10 6 -18 10 -18 5 0 7 13 4 29 -2 16 1
32 7 35 19 12 13 -52 -10 -104 -14 -34 -19 -59 -14 -77 8 -32 32 -63 50 -63 7
0 19 -18 28 -40 16 -41 45 -60 93 -60 22 0 23 -2 12 -21 -10 -17 -10 -23 0
-26 6 -3 12 -13 12 -24 0 -26 35 -25 54 2 8 12 12 28 9 35 -3 8 0 14 6 14 6 0
11 -11 11 -24 0 -28 -46 -70 -67 -62 -14 6 -16 -9 -7 -67 5 -30 9 -35 20 -26
8 6 14 17 14 24 0 14 69 122 94 148 26 26 36 21 36 -20 0 -21 3 -48 6 -61 6
-21 8 -21 19 -5 11 15 17 13 63 -21 28 -20 69 -58 91 -82 l40 -46 3 59 c3 55
5 58 30 61 15 2 40 -4 57 -12 50 -26 52 -19 10 42 -43 61 -62 71 -67 35 -4
-28 -10 -29 -33 -2 -12 14 -24 19 -38 14 -12 -4 -21 -2 -21 4 0 14 55 42 65
33 5 -4 5 -1 1 6 -5 9 -25 12 -59 10 -46 -3 -52 -1 -49 15 2 10 -2 25 -9 33
-16 19 -5 18 33 -6 18 -11 42 -20 52 -20 19 0 19 0 0 21 -48 53 -136 70 -200
38 -55 -26 -157 -37 -179 -19 -14 11 -10 15 23 30 22 10 43 24 47 31 5 7 -2 5
-16 -4 -13 -9 -32 -17 -43 -17 -18 0 -19 1 -1 20 18 20 17 20 -14 20 -29 0
-32 2 -25 23 11 35 27 38 52 12 18 -20 33 -25 72 -25 41 0 55 5 84 30 31 27
34 35 29 68 -11 74 -62 89 -165 47 -67 -27 -121 -34 -100 -13 22 22 14 39 -15
32 -26 -7 -27 -6 -13 10 29 36 127 93 171 100 24 4 53 9 64 12 15 3 25 -5 43
-35 12 -22 22 -47 22 -55 0 -20 16 -29 40 -21 39 12 21 145 -20 145 -4 0 -13
14 -19 30 -7 21 -17 31 -33 32 -13 1 -30 2 -38 3 -8 1 -25 6 -37 13 -12 7 -35
12 -52 12 -24 0 -31 4 -31 19 0 32 -16 33 -50 5z m190 -304 c25 -25 25 -51 1
-81 -15 -18 -28 -23 -60 -23 -22 1 -48 7 -56 14 -25 21 -14 62 24 87 42 28 65
29 91 3z m-272 -51 c-22 -12 -24 -57 -3 -65 16 -7 21 -24 6 -24 -17 0 -41 31
-41 54 0 26 17 46 40 46 12 -1 12 -2 -2 -11z m362 -199 c-11 -21 -35 -27 -45
-10 -10 16 4 30 31 30 22 0 23 -3 14 -20z m-190 -69 c0 -12 -20 -25 -27 -18
-7 7 6 27 18 27 5 0 9 -4 9 -9z"/>
<path d="M3256 1314 c-9 -8 -16 -19 -16 -24 0 -11 29 -40 39 -40 9 0 41 33 41
43 0 9 -30 37 -40 37 -5 0 -16 -7 -24 -16z"/>
<path d="M410 1365 l0 -245 40 0 40 0 0 115 0 115 95 0 95 0 0 30 0 30 -95 0
-95 0 0 70 0 70 95 0 95 0 0 30 0 30 -135 0 -135 0 0 -245z"/>
<path d="M788 1569 c-24 -14 -23 -46 3 -59 37 -20 67 28 37 58 -14 14 -18 14
-40 1z"/>
<path d="M1790 1414 l-40 -36 0 31 c0 28 -3 31 -30 31 l-30 0 0 -160 0 -160
30 0 30 0 0 98 c0 79 4 103 20 129 24 40 61 51 96 28 14 -9 27 -15 29 -13 5 7
25 47 25 52 0 8 -57 36 -74 36 -9 0 -34 -16 -56 -36z"/>
<path d="M2054 1436 c-17 -7 -42 -29 -55 -47 -33 -46 -35 -163 -3 -205 38 -52
69 -67 131 -67 80 0 117 19 121 61 l3 33 -28 -14 c-48 -25 -88 -29 -124 -14
-40 17 -55 33 -64 70 l-7 27 117 0 117 0 -7 37 c-9 51 -31 90 -60 109 -34 22
-103 27 -141 10z m120 -68 c9 -12 16 -30 16 -40 0 -16 -10 -18 -73 -18 -41 0
-76 3 -80 6 -8 9 19 61 35 67 7 3 30 6 50 6 27 1 41 -5 52 -21z"/>
<path d="M770 1280 l0 -160 35 0 35 0 0 160 0 160 -35 0 -35 0 0 -160z"/>
<path d="M1002 1425 c-66 -29 -78 -137 -19 -181 15 -11 18 -18 9 -21 -7 -3
-17 -14 -23 -25 -8 -15 -7 -24 6 -38 15 -17 15 -19 -12 -32 -37 -17 -57 -60
-46 -95 24 -72 154 -103 244 -57 38 19 51 39 51 80 0 49 -24 70 -106 93 -63
17 -91 35 -81 51 2 4 29 12 59 19 38 8 62 20 76 38 22 28 26 82 10 114 -10 17
-7 19 20 19 25 0 30 4 30 25 0 25 0 25 -92 25 -58 -1 -106 -6 -126 -15z m103
-60 c14 -13 25 -31 25 -40 0 -24 -37 -55 -67 -55 -57 0 -83 60 -43 100 27 27
56 25 85 -5z m23 -281 c27 -19 29 -50 3 -64 -32 -16 -122 -12 -143 7 -22 20
-23 31 -1 55 21 23 109 25 141 2z"/>
<path d="M1290 1343 c0 -129 8 -168 37 -197 42 -43 80 -42 166 2 4 2 7 -3 7
-12 0 -11 9 -16 30 -16 l30 0 0 160 0 160 -30 0 -30 0 0 -119 c0 -113 -1 -121
-22 -135 -29 -20 -82 -20 -102 0 -13 12 -16 40 -16 135 l0 119 -35 0 -35 0 0
-97z"/>
<path d="M3245 1405 c-16 -7 -35 -11 -42 -8 -7 3 -13 -2 -13 -11 0 -25 23 -29
65 -12 21 9 49 16 64 16 25 1 25 1 7 15 -24 18 -41 18 -81 0z"/>
</g>
<g transform="translate(0.000000,200.000000) scale(0.100000,-0.100000)"
fill="#250e8a" stroke="none">
<path d="M1825 1001 c-175 -46 -249 -246 -147 -394 103 -151 369 -132 454 32
64 122 19 269 -100 334 -55 30 -151 43 -207 28z m143 -76 c20 -9 48 -26 61
-38 30 -28 61 -94 61 -132 0 -65 -61 -151 -123 -174 -93 -35 -213 15 -246 102
-24 63 -10 150 32 196 51 55 144 75 215 46z"/>
</g>
<g transform="translate(0.000000,200.000000) scale(0.100000,-0.100000)"
fill="#3c4ae5" stroke="none">
<path d="M3126 945 c-15 -22 -21 -24 -56 -19 -35 6 -40 4 -45 -18 -10 -38 10
-78 40 -78 18 0 26 7 31 23 3 14 20 31 38 40 28 13 33 20 29 41 -7 37 -18 40
-37 11z"/>
</g>
<g transform="translate(0.000000,200.000000) scale(0.100000,-0.100000)"
fill="#250e8a" stroke="none">
<path d="M2668 843 c-32 -32 -58 -62 -58 -66 0 -4 14 -7 30 -7 l30 0 0 -108
c0 -100 2 -110 23 -130 30 -28 77 -37 121 -22 31 10 36 16 36 42 0 25 -3 29
-17 23 -84 -32 -103 -13 -103 106 l0 89 50 0 c49 0 50 1 50 30 0 29 -1 30 -49
30 -50 0 -50 0 -53 35 l-3 36 -57 -58z"/>
</g>
<g transform="translate(0.000000,200.000000) scale(0.100000,-0.100000)"
fill="#3c4ae5" stroke="none">
<path d="M3226 862 c-3 -6 1 -13 10 -16 11 -4 13 -12 8 -28 -6 -21 -5 -21 10
-9 9 8 16 24 14 35 -3 22 -32 34 -42 18z"/>
<path d="M3191 820 c-1 -14 -10 -43 -21 -64 -10 -21 -22 -59 -26 -85 -3 -25
-12 -65 -20 -89 -8 -24 -12 -47 -9 -52 3 -5 0 -21 -6 -36 -8 -23 -7 -31 6 -40
15 -11 14 -14 -9 -29 -14 -9 -33 -15 -43 -12 -19 4 -19 4 32 22 13 5 16 9 7
12 -20 8 -112 -29 -112 -45 0 -12 15 -13 88 -7 96 8 102 10 102 31 0 8 9 32
20 54 22 43 26 110 9 127 -16 16 45 103 71 103 30 0 100 -99 100 -141 0 -34
50 -119 71 -119 4 0 12 -15 17 -32 7 -29 13 -33 45 -36 20 -2 44 1 53 6 14 8
10 15 -25 51 -23 23 -41 36 -41 30 0 -23 -36 20 -38 46 -2 30 -39 105 -51 105
-7 0 -73 115 -99 172 -2 3 10 11 25 16 l28 10 -28 1 c-15 1 -41 -6 -58 -15
-36 -18 -62 -12 -77 19 -11 22 -11 22 -11 -3z m366 -416 c-3 -3 -12 -4 -19 -1
-8 3 -5 6 6 6 11 1 17 -2 13 -5z"/>
</g>
<g transform="translate(0.000000,200.000000) scale(0.100000,-0.100000)"
fill="#250e8a" stroke="none">
<path d="M2270 705 c0 -140 8 -167 55 -190 43 -20 63 -19 108 4 29 15 37 16
37 5 0 -9 12 -14 35 -14 l35 0 0 160 0 160 -35 0 -35 0 0 -119 c0 -113 -1
-121 -22 -135 -12 -9 -37 -16 -55 -16 -52 0 -63 26 -63 157 l0 113 -30 0 -30
0 0 -125z"/>
</g>
<g transform="translate(0.000000,200.000000) scale(0.100000,-0.100000)"
fill="#3c4ae5" stroke="none">
<path d="M3465 590 c9 -17 13 -35 10 -39 -6 -11 4 -41 15 -41 12 0 4 44 -14
78 -9 18 -19 32 -22 32 -2 0 3 -14 11 -30z"/>
</g>
</svg>
